<mxfile host="app.diagrams.net" agent="Mozilla/5.0 (Windows NT 10.0; Win64; x64) AppleWebKit/537.36 (KHTML, like Gecko) Chrome/132.0.0.0 Safari/537.36 Edg/132.0.0.0" version="26.0.8">
  <diagram id="prtHgNgQTEPvFCAcTncT" name="Page-1">
    <mxGraphModel dx="513" dy="558" grid="1" gridSize="10" guides="1" tooltips="1" connect="1" arrows="1" fold="1" page="1" pageScale="1" pageWidth="827" pageHeight="1169" math="0" shadow="0">
      <root>
        <mxCell id="0" />
        <mxCell id="1" parent="0" />
        <mxCell id="nYedx_f7TrJZjWoyqUpj-8" style="edgeStyle=orthogonalEdgeStyle;rounded=0;orthogonalLoop=1;jettySize=auto;html=1;exitX=0.5;exitY=1;exitDx=0;exitDy=0;entryX=0;entryY=0.5;entryDx=0;entryDy=0;" edge="1" parent="1" source="nYedx_f7TrJZjWoyqUpj-1" target="nYedx_f7TrJZjWoyqUpj-3">
          <mxGeometry relative="1" as="geometry" />
        </mxCell>
        <mxCell id="nYedx_f7TrJZjWoyqUpj-1" value="&lt;font style=&quot;font-size: 12px;&quot; face=&quot;Times New Roman&quot;&gt;Music metadata&lt;/font&gt;" style="rounded=0;whiteSpace=wrap;html=1;" vertex="1" parent="1">
          <mxGeometry x="160" y="90" width="120" height="60" as="geometry" />
        </mxCell>
        <mxCell id="nYedx_f7TrJZjWoyqUpj-9" style="edgeStyle=orthogonalEdgeStyle;rounded=0;orthogonalLoop=1;jettySize=auto;html=1;exitX=0.5;exitY=1;exitDx=0;exitDy=0;entryX=1;entryY=0.5;entryDx=0;entryDy=0;" edge="1" parent="1" source="nYedx_f7TrJZjWoyqUpj-2" target="nYedx_f7TrJZjWoyqUpj-3">
          <mxGeometry relative="1" as="geometry" />
        </mxCell>
        <mxCell id="nYedx_f7TrJZjWoyqUpj-2" value="&lt;font face=&quot;Times New Roman&quot;&gt;User behavior data&lt;/font&gt;" style="rounded=0;whiteSpace=wrap;html=1;" vertex="1" parent="1">
          <mxGeometry x="354" y="90" width="120" height="60" as="geometry" />
        </mxCell>
        <mxCell id="nYedx_f7TrJZjWoyqUpj-41" style="edgeStyle=orthogonalEdgeStyle;rounded=0;orthogonalLoop=1;jettySize=auto;html=1;exitX=0.5;exitY=1;exitDx=0;exitDy=0;entryX=0.5;entryY=0;entryDx=0;entryDy=0;" edge="1" parent="1" source="nYedx_f7TrJZjWoyqUpj-3" target="nYedx_f7TrJZjWoyqUpj-14">
          <mxGeometry relative="1" as="geometry" />
        </mxCell>
        <mxCell id="nYedx_f7TrJZjWoyqUpj-3" value="&lt;font face=&quot;Times New Roman&quot;&gt;Data reading and preprocessing&lt;/font&gt;" style="rounded=1;whiteSpace=wrap;html=1;" vertex="1" parent="1">
          <mxGeometry x="260" y="160" width="120" height="60" as="geometry" />
        </mxCell>
        <mxCell id="nYedx_f7TrJZjWoyqUpj-4" value="&lt;div&gt;&lt;font face=&quot;Times New Roman&quot;&gt;Data partitioning&lt;/font&gt;&lt;/div&gt;&lt;div&gt;&lt;br&gt;&lt;/div&gt;" style="rounded=1;whiteSpace=wrap;html=1;" vertex="1" parent="1">
          <mxGeometry x="260" y="320" width="120" height="50" as="geometry" />
        </mxCell>
        <mxCell id="nYedx_f7TrJZjWoyqUpj-31" style="edgeStyle=orthogonalEdgeStyle;rounded=0;orthogonalLoop=1;jettySize=auto;html=1;exitX=0.5;exitY=1;exitDx=0;exitDy=0;entryX=0.5;entryY=0;entryDx=0;entryDy=0;" edge="1" parent="1" source="nYedx_f7TrJZjWoyqUpj-5" target="nYedx_f7TrJZjWoyqUpj-6">
          <mxGeometry relative="1" as="geometry" />
        </mxCell>
        <mxCell id="nYedx_f7TrJZjWoyqUpj-5" value="&lt;font face=&quot;Times New Roman&quot;&gt;UCB algorithm training&lt;/font&gt;" style="rounded=1;whiteSpace=wrap;html=1;" vertex="1" parent="1">
          <mxGeometry x="170" y="500" width="120" height="60" as="geometry" />
        </mxCell>
        <mxCell id="nYedx_f7TrJZjWoyqUpj-33" style="edgeStyle=orthogonalEdgeStyle;rounded=0;orthogonalLoop=1;jettySize=auto;html=1;exitX=0.5;exitY=1;exitDx=0;exitDy=0;entryX=0.5;entryY=0;entryDx=0;entryDy=0;" edge="1" parent="1" source="nYedx_f7TrJZjWoyqUpj-6" target="nYedx_f7TrJZjWoyqUpj-32">
          <mxGeometry relative="1" as="geometry" />
        </mxCell>
        <mxCell id="nYedx_f7TrJZjWoyqUpj-6" value="&lt;font face=&quot;Times New Roman&quot;&gt;Recommendation generation&lt;/font&gt;" style="rounded=1;whiteSpace=wrap;html=1;" vertex="1" parent="1">
          <mxGeometry x="170" y="590" width="120" height="60" as="geometry" />
        </mxCell>
        <mxCell id="nYedx_f7TrJZjWoyqUpj-39" style="edgeStyle=orthogonalEdgeStyle;rounded=0;orthogonalLoop=1;jettySize=auto;html=1;exitX=0.5;exitY=1;exitDx=0;exitDy=0;entryX=0.5;entryY=0;entryDx=0;entryDy=0;" edge="1" parent="1" source="nYedx_f7TrJZjWoyqUpj-7" target="nYedx_f7TrJZjWoyqUpj-38">
          <mxGeometry relative="1" as="geometry" />
        </mxCell>
        <mxCell id="nYedx_f7TrJZjWoyqUpj-7" value="&lt;font face=&quot;Times New Roman&quot;&gt;result evaluation&lt;/font&gt;" style="rounded=1;whiteSpace=wrap;html=1;" vertex="1" parent="1">
          <mxGeometry x="290" y="740" width="120" height="60" as="geometry" />
        </mxCell>
        <mxCell id="nYedx_f7TrJZjWoyqUpj-16" style="edgeStyle=orthogonalEdgeStyle;rounded=0;orthogonalLoop=1;jettySize=auto;html=1;exitX=0.5;exitY=1;exitDx=0;exitDy=0;" edge="1" parent="1" source="nYedx_f7TrJZjWoyqUpj-14" target="nYedx_f7TrJZjWoyqUpj-4">
          <mxGeometry relative="1" as="geometry" />
        </mxCell>
        <mxCell id="nYedx_f7TrJZjWoyqUpj-14" value="&lt;font face=&quot;Times New Roman&quot;&gt;The merged data set&lt;/font&gt;" style="rounded=0;whiteSpace=wrap;html=1;strokeColor=light-dark(#FFFFFF,#FFFFFF);" vertex="1" parent="1">
          <mxGeometry x="260" y="250" width="120" height="40" as="geometry" />
        </mxCell>
        <mxCell id="nYedx_f7TrJZjWoyqUpj-18" value="" style="shape=link;html=1;rounded=0;width=31;" edge="1" parent="1">
          <mxGeometry width="100" relative="1" as="geometry">
            <mxPoint x="270" y="270" as="sourcePoint" />
            <mxPoint x="370" y="269.5" as="targetPoint" />
          </mxGeometry>
        </mxCell>
        <mxCell id="nYedx_f7TrJZjWoyqUpj-20" value="" style="shape=link;html=1;rounded=0;width=31;" edge="1" parent="1">
          <mxGeometry width="100" relative="1" as="geometry">
            <mxPoint x="370" y="450.5" as="sourcePoint" />
            <mxPoint x="470" y="450" as="targetPoint" />
          </mxGeometry>
        </mxCell>
        <mxCell id="nYedx_f7TrJZjWoyqUpj-35" style="edgeStyle=orthogonalEdgeStyle;rounded=0;orthogonalLoop=1;jettySize=auto;html=1;entryX=0.5;entryY=0;entryDx=0;entryDy=0;" edge="1" parent="1" source="nYedx_f7TrJZjWoyqUpj-22" target="nYedx_f7TrJZjWoyqUpj-7">
          <mxGeometry relative="1" as="geometry" />
        </mxCell>
        <mxCell id="nYedx_f7TrJZjWoyqUpj-22" value="&lt;div&gt;&lt;font face=&quot;Times New Roman&quot;&gt;Test set&lt;/font&gt;&lt;/div&gt;&lt;div&gt;&lt;br&gt;&lt;/div&gt;" style="text;html=1;align=center;verticalAlign=middle;resizable=0;points=[];autosize=1;strokeColor=none;fillColor=none;" vertex="1" parent="1">
          <mxGeometry x="390" y="438" width="60" height="40" as="geometry" />
        </mxCell>
        <mxCell id="nYedx_f7TrJZjWoyqUpj-26" value="" style="shape=link;html=1;rounded=0;width=31;" edge="1" parent="1">
          <mxGeometry width="100" relative="1" as="geometry">
            <mxPoint x="180" y="450.5" as="sourcePoint" />
            <mxPoint x="280" y="450" as="targetPoint" />
          </mxGeometry>
        </mxCell>
        <mxCell id="nYedx_f7TrJZjWoyqUpj-30" style="edgeStyle=orthogonalEdgeStyle;rounded=0;orthogonalLoop=1;jettySize=auto;html=1;entryX=0.5;entryY=0;entryDx=0;entryDy=0;" edge="1" parent="1" source="nYedx_f7TrJZjWoyqUpj-27" target="nYedx_f7TrJZjWoyqUpj-5">
          <mxGeometry relative="1" as="geometry" />
        </mxCell>
        <mxCell id="nYedx_f7TrJZjWoyqUpj-27" value="&lt;font face=&quot;Times New Roman&quot;&gt;Training set&lt;/font&gt;" style="text;html=1;align=center;verticalAlign=middle;resizable=0;points=[];autosize=1;strokeColor=none;fillColor=none;" vertex="1" parent="1">
          <mxGeometry x="190" y="438" width="80" height="30" as="geometry" />
        </mxCell>
        <mxCell id="nYedx_f7TrJZjWoyqUpj-28" style="edgeStyle=orthogonalEdgeStyle;rounded=0;orthogonalLoop=1;jettySize=auto;html=1;exitX=0.5;exitY=1;exitDx=0;exitDy=0;entryX=0.69;entryY=0.133;entryDx=0;entryDy=0;entryPerimeter=0;" edge="1" parent="1" source="nYedx_f7TrJZjWoyqUpj-4" target="nYedx_f7TrJZjWoyqUpj-27">
          <mxGeometry relative="1" as="geometry" />
        </mxCell>
        <mxCell id="nYedx_f7TrJZjWoyqUpj-29" style="edgeStyle=orthogonalEdgeStyle;rounded=0;orthogonalLoop=1;jettySize=auto;html=1;exitX=0.5;exitY=1;exitDx=0;exitDy=0;entryX=0.167;entryY=0.067;entryDx=0;entryDy=0;entryPerimeter=0;" edge="1" parent="1" source="nYedx_f7TrJZjWoyqUpj-4" target="nYedx_f7TrJZjWoyqUpj-22">
          <mxGeometry relative="1" as="geometry" />
        </mxCell>
        <mxCell id="nYedx_f7TrJZjWoyqUpj-37" style="edgeStyle=orthogonalEdgeStyle;rounded=0;orthogonalLoop=1;jettySize=auto;html=1;exitX=0.5;exitY=1;exitDx=0;exitDy=0;entryX=0;entryY=0.5;entryDx=0;entryDy=0;" edge="1" parent="1" source="nYedx_f7TrJZjWoyqUpj-32" target="nYedx_f7TrJZjWoyqUpj-7">
          <mxGeometry relative="1" as="geometry" />
        </mxCell>
        <mxCell id="nYedx_f7TrJZjWoyqUpj-32" value="&lt;font face=&quot;Times New Roman&quot;&gt;Recommendation list&lt;/font&gt;" style="rounded=0;whiteSpace=wrap;html=1;" vertex="1" parent="1">
          <mxGeometry x="175" y="690" width="110" height="50" as="geometry" />
        </mxCell>
        <mxCell id="nYedx_f7TrJZjWoyqUpj-38" value="&lt;font face=&quot;Times New Roman&quot;&gt;Evaluation index result&lt;/font&gt;" style="rounded=0;whiteSpace=wrap;html=1;" vertex="1" parent="1">
          <mxGeometry x="290" y="830" width="120" height="60" as="geometry" />
        </mxCell>
      </root>
    </mxGraphModel>
  </diagram>
</mxfile>
